<?xml version="1.0" encoding="UTF-8"?>
<svg xmlns="http://www.w3.org/2000/svg" xmlns:xlink="http://www.w3.org/1999/xlink" width="120px" height="46px" viewBox="0 0 121 46" version="1.1">
<defs>
<clipPath id="clip1">
  <path d="M 79 3 L 105 3 L 105 28 L 79 28 Z M 79 3 "/>
</clipPath>
<clipPath id="clip2">
  <path d="M 102.972656 7.035156 C 99.210938 2.007812 91.242188 1.675781 85.171875 6.273438 C 79.101562 10.871094 77.226562 18.671875 80.992188 23.6875 C 84.753906 28.710938 92.722656 29.046875 98.792969 24.445312 C 104.863281 19.847656 106.738281 12.050781 102.972656 7.035156 Z M 102.972656 7.035156 "/>
</clipPath>
<clipPath id="clip3">
  <path d="M 65.503906 12.875 L 96.886719 -10.898438 L 118.589844 18.066406 L 87.21875 41.832031 Z M 65.503906 12.875 "/>
</clipPath>
<clipPath id="clip4">
  <path d="M 102.972656 7.035156 C 99.210938 2.007812 91.242188 1.675781 85.171875 6.273438 C 79.101562 10.871094 77.226562 18.671875 80.992188 23.6875 C 84.753906 28.710938 92.722656 29.046875 98.792969 24.445312 C 104.863281 19.847656 106.738281 12.050781 102.972656 7.035156 Z M 102.972656 7.035156 "/>
</clipPath>
<clipPath id="clip5">
  <path d="M 74.242188 14.804688 L 96.21875 -1.839844 L 109.851562 16.351562 L 87.878906 32.996094 Z M 74.242188 14.804688 "/>
</clipPath>
<clipPath id="clip6">
  <path d="M 79 3 L 105 3 L 105 28 L 79 28 Z M 79 3 "/>
</clipPath>
<clipPath id="clip7">
  <path d="M 102.972656 7.035156 C 99.210938 2.007812 91.242188 1.675781 85.171875 6.273438 C 79.101562 10.871094 77.226562 18.671875 80.992188 23.6875 C 84.753906 28.710938 92.722656 29.046875 98.792969 24.445312 C 104.863281 19.847656 106.738281 12.050781 102.972656 7.035156 Z M 102.972656 7.035156 "/>
</clipPath>
<clipPath id="clip8">
  <path d="M 65.503906 12.875 L 96.886719 -10.898438 L 118.589844 18.066406 L 87.21875 41.832031 Z M 65.503906 12.875 "/>
</clipPath>
<clipPath id="clip9">
  <path d="M 102.972656 7.035156 C 99.210938 2.007812 91.242188 1.675781 85.171875 6.273438 C 79.101562 10.871094 77.226562 18.671875 80.992188 23.6875 C 84.753906 28.710938 92.722656 29.046875 98.792969 24.445312 C 104.863281 19.847656 106.738281 12.050781 102.972656 7.035156 Z M 102.972656 7.035156 "/>
</clipPath>
<clipPath id="clip10">
  <path d="M 77.375 25.734375 L 84.957031 -0.855469 L 106.738281 5.421875 L 99.15625 32.011719 Z M 77.375 25.734375 "/>
</clipPath>
<clipPath id="clip11">
  <path d="M 79 3 L 105 3 L 105 28 L 79 28 Z M 79 3 "/>
</clipPath>
<clipPath id="clip12">
  <path d="M 102.972656 7.035156 C 99.210938 2.007812 91.242188 1.675781 85.171875 6.273438 C 79.101562 10.871094 77.226562 18.671875 80.992188 23.6875 C 84.753906 28.710938 92.722656 29.046875 98.792969 24.445312 C 104.863281 19.847656 106.738281 12.050781 102.972656 7.035156 Z M 102.972656 7.035156 "/>
</clipPath>
<clipPath id="clip13">
  <path d="M 65.503906 12.875 L 96.886719 -10.898438 L 118.589844 18.066406 L 87.21875 41.832031 Z M 65.503906 12.875 "/>
</clipPath>
<clipPath id="clip14">
  <path d="M 102.972656 7.035156 C 99.210938 2.007812 91.242188 1.675781 85.171875 6.273438 C 79.101562 10.871094 77.226562 18.671875 80.992188 23.6875 C 84.753906 28.710938 92.722656 29.046875 98.792969 24.445312 C 104.863281 19.847656 106.738281 12.050781 102.972656 7.035156 Z M 102.972656 7.035156 "/>
</clipPath>
<clipPath id="clip15">
  <path d="M 74.242188 14.804688 L 96.21875 -1.839844 L 109.851562 16.351562 L 87.878906 32.996094 Z M 74.242188 14.804688 "/>
</clipPath>
<clipPath id="clip16">
  <path d="M 79 3 L 105 3 L 105 28 L 79 28 Z M 79 3 "/>
</clipPath>
<clipPath id="clip17">
  <path d="M 102.972656 7.035156 C 99.210938 2.007812 91.242188 1.675781 85.171875 6.273438 C 79.101562 10.871094 77.226562 18.671875 80.992188 23.6875 C 84.753906 28.710938 92.722656 29.046875 98.792969 24.445312 C 104.863281 19.847656 106.738281 12.050781 102.972656 7.035156 Z M 102.972656 7.035156 "/>
</clipPath>
<clipPath id="clip18">
  <path d="M 65.503906 12.875 L 96.886719 -10.898438 L 118.589844 18.066406 L 87.21875 41.832031 Z M 65.503906 12.875 "/>
</clipPath>
<clipPath id="clip19">
  <path d="M 102.972656 7.035156 C 99.210938 2.007812 91.242188 1.675781 85.171875 6.273438 C 79.101562 10.871094 77.226562 18.671875 80.992188 23.6875 C 84.753906 28.710938 92.722656 29.046875 98.792969 24.445312 C 104.863281 19.847656 106.738281 12.050781 102.972656 7.035156 Z M 102.972656 7.035156 "/>
</clipPath>
<clipPath id="clip20">
  <path d="M 77.375 25.734375 L 84.957031 -0.855469 L 106.738281 5.421875 L 99.15625 32.011719 Z M 77.375 25.734375 "/>
</clipPath>
<clipPath id="clip21">
  <path d="M 79 3 L 105 3 L 105 28 L 79 28 Z M 79 3 "/>
</clipPath>
<clipPath id="clip22">
  <path d="M 102.972656 7.035156 C 99.210938 2.007812 91.242188 1.675781 85.171875 6.273438 C 79.101562 10.871094 77.226562 18.671875 80.992188 23.6875 C 84.753906 28.710938 92.722656 29.046875 98.792969 24.445312 C 104.863281 19.847656 106.738281 12.050781 102.972656 7.035156 Z M 102.972656 7.035156 "/>
</clipPath>
<clipPath id="clip23">
  <path d="M 65.503906 12.875 L 96.886719 -10.898438 L 118.589844 18.066406 L 87.21875 41.832031 Z M 65.503906 12.875 "/>
</clipPath>
<clipPath id="clip24">
  <path d="M 102.972656 7.035156 C 99.210938 2.007812 91.242188 1.675781 85.171875 6.273438 C 79.101562 10.871094 77.226562 18.671875 80.992188 23.6875 C 84.753906 28.710938 92.722656 29.046875 98.792969 24.445312 C 104.863281 19.847656 106.738281 12.050781 102.972656 7.035156 Z M 102.972656 7.035156 "/>
</clipPath>
<clipPath id="clip25">
  <path d="M 79 3 L 105 3 L 105 28 L 79 28 Z M 79 3 "/>
</clipPath>
<clipPath id="clip26">
  <path d="M 102.972656 7.035156 C 99.210938 2.007812 91.242188 1.675781 85.171875 6.273438 C 79.101562 10.871094 77.226562 18.671875 80.992188 23.6875 C 84.753906 28.710938 92.722656 29.046875 98.792969 24.445312 C 104.863281 19.847656 106.738281 12.050781 102.972656 7.035156 Z M 102.972656 7.035156 "/>
</clipPath>
<clipPath id="clip27">
  <path d="M 65.503906 12.875 L 96.886719 -10.898438 L 118.589844 18.066406 L 87.21875 41.832031 Z M 65.503906 12.875 "/>
</clipPath>
<clipPath id="clip28">
  <path d="M 85.410156 8 L 99.648438 8 L 99.648438 23 L 85.410156 23 Z M 85.410156 8 "/>
</clipPath>
<clipPath id="clip29">
  <path d="M 102.972656 7.035156 C 99.210938 2.007812 91.242188 1.675781 85.171875 6.273438 C 79.101562 10.871094 77.226562 18.671875 80.992188 23.6875 C 84.753906 28.710938 92.722656 29.046875 98.792969 24.445312 C 104.863281 19.847656 106.738281 12.050781 102.972656 7.035156 Z M 102.972656 7.035156 "/>
</clipPath>
<clipPath id="clip30">
  <path d="M 65.503906 12.875 L 96.886719 -10.898438 L 118.589844 18.066406 L 87.21875 41.832031 Z M 65.503906 12.875 "/>
</clipPath>
</defs>
<g id="surface1">
<path style=" stroke:none;fill-rule:nonzero;fill:rgb(0%,0%,0%);fill-opacity:1;" d="M 62.464844 15.386719 L 68.210938 15.015625 C 68.339844 15.960938 68.582031 16.65625 68.980469 17.167969 C 69.609375 17.957031 70.480469 18.355469 71.640625 18.355469 C 72.492188 18.355469 73.167969 18.160156 73.632812 17.742188 C 74.066406 17.410156 74.328125 16.878906 74.328125 16.332031 C 74.328125 15.804688 74.085938 15.304688 73.679688 14.96875 C 73.234375 14.570312 72.214844 14.183594 70.59375 13.832031 C 67.953125 13.238281 66.050781 12.449219 64.9375 11.4375 C 63.816406 10.492188 63.1875 9.101562 63.234375 7.636719 C 63.234375 6.625 63.539062 5.617188 64.105469 4.78125 C 64.761719 3.835938 65.652344 3.085938 66.726562 2.667969 C 67.886719 2.167969 69.5 1.898438 71.539062 1.898438 C 74.023438 1.898438 75.921875 2.359375 77.238281 3.308594 C 78.542969 4.234375 79.332031 5.726562 79.574219 7.765625 L 73.890625 8.089844 C 73.742188 7.21875 73.4375 6.578125 72.929688 6.164062 C 72.425781 5.746094 71.769531 5.550781 70.925781 5.550781 C 70.222656 5.550781 69.703125 5.699219 69.351562 5.984375 C 69.015625 6.246094 68.804688 6.644531 68.824219 7.089844 C 68.824219 7.414062 69 7.71875 69.257812 7.925781 C 69.546875 8.183594 70.222656 8.425781 71.296875 8.648438 C 73.9375 9.210938 75.820312 9.789062 76.976562 10.382812 C 78.128906 10.972656 78.960938 11.699219 79.460938 12.550781 C 79.988281 13.429688 80.25 14.441406 80.230469 15.480469 C 80.230469 16.703125 79.878906 17.9375 79.183594 18.964844 C 78.460938 20.042969 77.449219 20.875 76.273438 21.386719 C 75.03125 21.933594 73.457031 22.222656 71.574219 22.222656 C 68.257812 22.222656 65.957031 21.582031 64.671875 20.285156 C 63.382812 18.996094 62.621094 17.363281 62.464844 15.386719 Z M 1.484375 21.886719 L 1.484375 2.25 L 11.558594 2.25 C 13.417969 2.25 14.855469 2.40625 15.839844 2.730469 C 16.800781 3.046875 17.65625 3.675781 18.21875 4.539062 C 18.859375 5.484375 19.164062 6.578125 19.136719 7.71875 C 19.203125 9.65625 18.21875 11.503906 16.542969 12.46875 C 15.886719 12.839844 15.160156 13.105469 14.421875 13.238281 C 14.96875 13.386719 15.515625 13.652344 15.996094 13.960938 C 16.367188 14.265625 16.671875 14.617188 16.960938 14.988281 C 17.285156 15.371094 17.570312 15.785156 17.804688 16.222656 L 20.730469 21.914062 L 13.875 21.914062 L 10.640625 15.871094 C 10.222656 15.101562 9.878906 14.601562 9.546875 14.359375 C 9.109375 14.050781 8.589844 13.894531 8.0625 13.894531 L 7.535156 13.894531 L 7.535156 21.867188 L 1.484375 21.867188 Z M 7.535156 10.203125 L 10.09375 10.203125 C 10.640625 10.160156 11.167969 10.074219 11.6875 9.945312 C 12.085938 9.871094 12.4375 9.65625 12.667969 9.324219 C 13.261719 8.535156 13.179688 7.414062 12.457031 6.738281 C 12.058594 6.402344 11.296875 6.226562 10.203125 6.226562 L 7.535156 6.226562 Z M 0.109375 38.714844 L 5.855469 38.34375 C 5.988281 39.289062 6.226562 39.996094 6.617188 40.496094 C 7.230469 41.285156 8.128906 41.703125 9.285156 41.703125 C 10.140625 41.703125 10.816406 41.507812 11.277344 41.089844 C 11.714844 40.738281 11.972656 40.234375 11.972656 39.679688 C 11.972656 39.160156 11.734375 38.652344 11.316406 38.328125 C 10.878906 37.925781 9.851562 37.527344 8.21875 37.175781 C 5.570312 36.582031 3.671875 35.796875 2.558594 34.785156 C 1.445312 33.839844 0.804688 32.457031 0.851562 30.984375 C 0.851562 29.972656 1.160156 28.960938 1.722656 28.128906 C 2.382812 27.179688 3.28125 26.441406 4.347656 26.023438 C 5.503906 25.511719 7.125 25.253906 9.15625 25.253906 C 11.648438 25.253906 13.550781 25.714844 14.855469 26.652344 C 16.171875 27.597656 16.933594 29.074219 17.171875 31.113281 L 11.492188 31.445312 C 11.34375 30.566406 11.039062 29.925781 10.527344 29.507812 C 10.054688 29.089844 9.371094 28.898438 8.527344 28.925781 C 7.820312 28.925781 7.304688 29.074219 6.949219 29.378906 C 6.597656 29.648438 6.402344 30.039062 6.421875 30.480469 C 6.421875 30.808594 6.597656 31.113281 6.859375 31.316406 C 7.144531 31.578125 7.820312 31.816406 8.898438 32.039062 C 11.539062 32.613281 13.417969 33.179688 14.578125 33.773438 C 15.738281 34.367188 16.5625 35.089844 17.0625 35.953125 C 17.589844 36.824219 17.851562 37.835938 17.851562 38.84375 C 17.851562 40.078125 17.480469 41.285156 16.800781 42.324219 C 16.078125 43.398438 15.078125 44.234375 13.890625 44.734375 C 12.652344 45.289062 11.074219 45.566406 9.203125 45.566406 C 5.875 45.566406 3.585938 44.9375 2.296875 43.640625 C 1.011719 42.324219 0.289062 40.691406 0.109375 38.714844 Z M 0.109375 38.714844 "/>
<path style=" stroke:none;fill-rule:nonzero;fill:rgb(0%,0%,0%);fill-opacity:1;" d="M 29.164062 37.175781 L 34.457031 38.78125 C 34.171875 40.125 33.585938 41.394531 32.769531 42.515625 C 32.03125 43.507812 31.046875 44.277344 29.933594 44.78125 C 28.796875 45.289062 27.359375 45.550781 25.605469 45.550781 C 23.484375 45.550781 21.742188 45.242188 20.40625 44.621094 C 19.054688 44.011719 17.894531 42.914062 16.914062 41.347656 C 15.929688 39.792969 15.449219 37.796875 15.449219 35.359375 C 15.449219 32.105469 16.300781 29.601562 18.027344 27.867188 C 19.75 26.132812 22.179688 25.253906 25.320312 25.253906 C 27.792969 25.253906 29.710938 25.753906 31.140625 26.746094 C 32.53125 27.757812 33.585938 29.296875 34.28125 31.355469 L 28.953125 32.539062 C 28.824219 32.085938 28.617188 31.621094 28.359375 31.222656 C 28.035156 30.769531 27.617188 30.417969 27.117188 30.148438 C 26.617188 29.890625 26.042969 29.777344 25.476562 29.777344 C 24.097656 29.777344 23.050781 30.324219 22.324219 31.445312 C 21.789062 32.261719 21.5 33.550781 21.5 35.3125 C 21.5 37.484375 21.824219 38.984375 22.484375 39.792969 C 23.140625 40.605469 24.058594 41.003906 25.253906 41.003906 C 26.414062 41.003906 27.292969 40.671875 27.878906 40.03125 C 28.46875 39.355469 28.90625 38.410156 29.164062 37.175781 Z M 41.511719 25.578125 L 47.542969 25.578125 L 47.542969 32.457031 L 54.140625 32.457031 L 54.140625 25.578125 L 60.210938 25.578125 L 60.210938 45.214844 L 54.140625 45.214844 L 54.140625 37.269531 L 47.542969 37.269531 L 47.542969 45.214844 L 41.511719 45.214844 Z M 41.511719 25.578125 "/>
<path style=" stroke:none;fill-rule:nonzero;fill:rgb(0%,0%,0%);fill-opacity:1;" d="M 59.386719 35.394531 C 59.386719 32.199219 60.277344 29.683594 62.046875 27.914062 C 63.816406 26.132812 66.3125 25.226562 69.480469 25.226562 C 72.734375 25.226562 75.226562 26.105469 76.996094 27.867188 C 78.765625 29.621094 79.636719 32.085938 79.636719 35.25 C 79.636719 37.558594 79.25 39.421875 78.480469 40.894531 C 77.738281 42.339844 76.578125 43.527344 75.160156 44.316406 C 73.699219 45.132812 71.878906 45.550781 69.722656 45.550781 C 67.515625 45.550781 65.699219 45.195312 64.253906 44.492188 C 62.769531 43.75 61.546875 42.582031 60.742188 41.152344 C 59.84375 39.613281 59.386719 37.703125 59.386719 35.394531 Z M 65.410156 35.425781 C 65.410156 37.398438 65.792969 38.828125 66.503906 39.707031 C 67.226562 40.5625 68.238281 41.003906 69.5 41.003906 C 70.789062 41.003906 71.796875 40.589844 72.519531 39.726562 C 73.234375 38.875 73.585938 37.351562 73.585938 35.15625 C 73.585938 33.308594 73.214844 31.949219 72.472656 31.113281 C 71.734375 30.261719 70.722656 29.84375 69.460938 29.84375 C 68.339844 29.796875 67.273438 30.277344 66.535156 31.140625 C 65.792969 31.992188 65.410156 33.421875 65.410156 35.425781 Z M 85.820312 35.394531 C 85.820312 32.199219 86.71875 29.683594 88.488281 27.914062 C 90.257812 26.132812 92.75 25.226562 95.914062 25.226562 C 99.175781 25.226562 101.6875 26.105469 103.429688 27.867188 C 105.179688 29.621094 106.078125 32.085938 106.078125 35.25 C 106.078125 37.558594 105.679688 39.421875 104.921875 40.894531 C 104.179688 42.339844 103.019531 43.527344 101.59375 44.316406 C 100.128906 45.132812 98.320312 45.550781 96.152344 45.550781 C 93.949219 45.550781 92.140625 45.195312 90.695312 44.492188 C 89.210938 43.75 87.988281 42.582031 87.171875 41.152344 C 86.28125 39.613281 85.820312 37.703125 85.820312 35.394531 Z M 91.851562 35.425781 C 91.851562 37.398438 92.222656 38.828125 92.945312 39.707031 C 93.667969 40.5625 94.671875 41.003906 95.941406 41.003906 C 97.226562 41.003906 98.230469 40.589844 98.953125 39.726562 C 99.675781 38.875 100.027344 37.351562 100.027344 35.15625 C 100.027344 33.308594 99.65625 31.949219 98.90625 31.113281 C 98.164062 30.261719 97.164062 29.84375 95.894531 29.84375 C 94.78125 29.796875 93.6875 30.277344 92.964844 31.140625 C 92.222656 31.992188 91.851562 33.421875 91.851562 35.425781 Z M 91.851562 35.425781 "/>
<path style=" stroke:none;fill-rule:nonzero;fill:rgb(0%,0%,0%);fill-opacity:1;" d="M 105.4375 25.578125 L 111.472656 25.578125 L 111.472656 40.382812 L 120.890625 40.382812 L 120.890625 45.214844 L 105.421875 45.214844 L 105.421875 25.578125 Z M 105.4375 25.578125 "/>
<path style=" stroke:none;fill-rule:nonzero;fill:rgb(100%,100%,100%);fill-opacity:1;" d="M 102.972656 7.035156 C 99.210938 2.007812 91.242188 1.675781 85.171875 6.273438 C 79.101562 10.871094 77.226562 18.671875 80.992188 23.6875 C 84.753906 28.710938 92.722656 29.046875 98.792969 24.445312 C 104.863281 19.847656 106.738281 12.050781 102.972656 7.035156 Z M 102.972656 7.035156 "/>
<g clip-path="url(#clip1)" clip-rule="nonzero">
<g clip-path="url(#clip2)" clip-rule="nonzero">
<path style=" stroke:none;fill-rule:nonzero;fill:rgb(100%,100%,100%);fill-opacity:1;" d="M 65.503906 12.875 L 96.886719 -10.898438 L 118.589844 18.066406 L 87.21875 41.832031 Z M 65.503906 12.875 "/>
<g clip-path="url(#clip3)" clip-rule="nonzero">
<path style=" stroke:none;fill-rule:nonzero;fill:rgb(100%,100%,100%);fill-opacity:1;" d="M 102.972656 7.035156 C 99.210938 2.007812 91.242188 1.675781 85.171875 6.273438 C 79.101562 10.871094 77.226562 18.671875 80.992188 23.6875 C 84.753906 28.710938 92.722656 29.046875 98.792969 24.445312 C 104.863281 19.847656 106.738281 12.050781 102.972656 7.035156 Z M 102.972656 7.035156 "/>
<g clip-path="url(#clip4)" clip-rule="nonzero">
<path style=" stroke:none;fill-rule:nonzero;fill:rgb(100%,100%,100%);fill-opacity:1;" d="M 74.242188 14.804688 L 96.21875 -1.839844 L 109.851562 16.351562 L 87.878906 32.996094 Z M 74.242188 14.804688 "/>
<g clip-path="url(#clip5)" clip-rule="nonzero">
<path style="fill-rule:nonzero;fill:rgb(100%,100%,100%);fill-opacity:1;stroke-width:4;stroke-linecap:butt;stroke-linejoin:miter;stroke:rgb(0%,0%,0%);stroke-opacity:1;stroke-miterlimit:10;" d="M 483.471578 67.899536 C 483.494997 39.260416 455.276872 16.103096 420.492113 16.097387 C 385.707355 16.091678 357.481898 39.287334 357.504863 67.894609 C 357.492146 96.519528 385.69957 119.691049 420.49503 119.682557 C 455.279789 119.688266 483.494544 96.506811 483.471578 67.899536 Z M 483.471578 67.899536 " transform="matrix(0.174489,-0.132203,0.131492,0.175433,9.683905,59.039844)"/>
</g>
</g>
</g>
</g>
</g>
<g clip-path="url(#clip6)" clip-rule="nonzero">
<g clip-path="url(#clip7)" clip-rule="nonzero">
<g clip-path="url(#clip8)" clip-rule="nonzero">
<g clip-path="url(#clip9)" clip-rule="nonzero">
<g clip-path="url(#clip10)" clip-rule="nonzero">
<path style="fill:none;stroke-width:4;stroke-linecap:butt;stroke-linejoin:miter;stroke:rgb(0%,0%,0%);stroke-opacity:1;stroke-miterlimit:10;" d="M 357.790699 16.99015 L 483.721814 17.010566 L 483.715899 120.699009 L 357.799063 120.689353 Z M 357.790699 16.99015 " transform="matrix(0.174491,-0.1322,0.131489,0.175435,9.57683,59.123999)"/>
</g>
</g>
</g>
</g>
</g>
<g clip-path="url(#clip11)" clip-rule="nonzero">
<g clip-path="url(#clip12)" clip-rule="nonzero">
<g clip-path="url(#clip13)" clip-rule="nonzero">
<g clip-path="url(#clip14)" clip-rule="nonzero">
<path style="fill:none;stroke-width:4;stroke-linecap:butt;stroke-linejoin:miter;stroke:rgb(0%,0%,0%);stroke-opacity:1;stroke-miterlimit:10;" d="M 483.471578 67.899536 C 483.494997 39.260416 455.276872 16.103096 420.492113 16.097387 C 385.707355 16.091678 357.481898 39.287334 357.504863 67.894609 C 357.492146 96.519528 385.69957 119.691049 420.49503 119.682557 C 455.279789 119.688266 483.494544 96.506811 483.471578 67.899536 Z M 483.471578 67.899536 " transform="matrix(0.174489,-0.132203,0.131492,0.175433,9.683905,59.039844)"/>
<path style=" stroke:none;fill-rule:nonzero;fill:rgb(100%,100%,100%);fill-opacity:1;" d="M 74.242188 14.804688 L 96.21875 -1.839844 L 109.851562 16.351562 L 87.878906 32.996094 Z M 74.242188 14.804688 "/>
<g clip-path="url(#clip15)" clip-rule="nonzero">
<path style="fill-rule:nonzero;fill:rgb(100%,100%,100%);fill-opacity:1;stroke-width:4;stroke-linecap:butt;stroke-linejoin:miter;stroke:rgb(0%,0%,0%);stroke-opacity:1;stroke-miterlimit:10;" d="M 483.471578 67.899536 C 483.494997 39.260416 455.276872 16.103096 420.492113 16.097387 C 385.707355 16.091678 357.481898 39.287334 357.504863 67.894609 C 357.492146 96.519528 385.69957 119.691049 420.49503 119.682557 C 455.279789 119.688266 483.494544 96.506811 483.471578 67.899536 Z M 483.471578 67.899536 " transform="matrix(0.174489,-0.132203,0.131492,0.175433,9.683905,59.039844)"/>
</g>
</g>
</g>
</g>
</g>
<g clip-path="url(#clip16)" clip-rule="nonzero">
<g clip-path="url(#clip17)" clip-rule="nonzero">
<g clip-path="url(#clip18)" clip-rule="nonzero">
<g clip-path="url(#clip19)" clip-rule="nonzero">
<g clip-path="url(#clip20)" clip-rule="nonzero">
<path style="fill:none;stroke-width:4;stroke-linecap:butt;stroke-linejoin:miter;stroke:rgb(0%,0%,0%);stroke-opacity:1;stroke-miterlimit:10;" d="M 357.790699 16.99015 L 483.721814 17.010566 L 483.715899 120.699009 L 357.799063 120.689353 Z M 357.790699 16.99015 " transform="matrix(0.174491,-0.1322,0.131489,0.175435,9.57683,59.123999)"/>
</g>
</g>
</g>
</g>
</g>
<g clip-path="url(#clip21)" clip-rule="nonzero">
<g clip-path="url(#clip22)" clip-rule="nonzero">
<g clip-path="url(#clip23)" clip-rule="nonzero">
<g clip-path="url(#clip24)" clip-rule="nonzero">
<path style="fill:none;stroke-width:4;stroke-linecap:butt;stroke-linejoin:miter;stroke:rgb(0%,0%,0%);stroke-opacity:1;stroke-miterlimit:10;" d="M 330.871531 -14.199557 L 510.715901 -14.184902 L 510.691106 150.901258 L 330.910975 150.890479 Z M 330.871531 -14.199557 " transform="matrix(0.174489,-0.132203,0.131492,0.175433,9.637548,59.10836)"/>
</g>
</g>
</g>
</g>
<g clip-path="url(#clip25)" clip-rule="nonzero">
<g clip-path="url(#clip26)" clip-rule="nonzero">
<g clip-path="url(#clip27)" clip-rule="nonzero">
<path style="fill:none;stroke-width:4;stroke-linecap:butt;stroke-linejoin:miter;stroke:rgb(0%,0%,0%);stroke-opacity:1;stroke-miterlimit:10;" d="M 483.471578 67.899536 C 483.494997 39.260416 455.276872 16.103096 420.492113 16.097387 C 385.707355 16.091678 357.481898 39.287334 357.504863 67.894609 C 357.492146 96.519528 385.69957 119.691049 420.49503 119.682557 C 455.279789 119.688266 483.494544 96.506811 483.471578 67.899536 Z M 483.471578 67.899536 " transform="matrix(0.174489,-0.132203,0.131492,0.175433,9.683905,59.039844)"/>
</g>
</g>
</g>
<g clip-path="url(#clip28)" clip-rule="nonzero">
<g clip-path="url(#clip29)" clip-rule="nonzero">
<g clip-path="url(#clip30)" clip-rule="nonzero">
<path style=" stroke:none;fill-rule:nonzero;fill:rgb(0%,0%,0%);fill-opacity:1;" d="M 85.847656 13.914062 L 88.023438 12.375 L 90.714844 16.222656 C 91.175781 16.835938 91.527344 17.5 91.789062 18.226562 C 91.9375 18.773438 91.898438 19.367188 91.675781 19.894531 C 91.390625 20.550781 90.933594 21.097656 90.324219 21.496094 C 89.601562 22 88.988281 22.285156 88.46875 22.371094 C 87.960938 22.460938 87.441406 22.371094 86.960938 22.15625 C 86.429688 21.886719 85.976562 21.515625 85.625 21.035156 L 87.507812 19.273438 C 87.65625 19.515625 87.859375 19.734375 88.070312 19.914062 C 88.230469 20.023438 88.40625 20.089844 88.601562 20.089844 C 88.75 20.089844 88.90625 20.023438 89.015625 19.929688 C 89.230469 19.800781 89.386719 19.542969 89.359375 19.273438 C 89.296875 18.902344 89.148438 18.53125 88.90625 18.242188 Z M 92.398438 16.351562 L 94.382812 14.777344 C 94.605469 15.035156 94.894531 15.230469 95.199219 15.339844 C 95.632812 15.480469 96.089844 15.386719 96.457031 15.101562 C 96.726562 14.925781 96.941406 14.683594 97.035156 14.378906 C 97.164062 13.980469 96.941406 13.542969 96.550781 13.414062 C 96.488281 13.386719 96.421875 13.367188 96.355469 13.367188 C 96.089844 13.347656 95.632812 13.460938 94.957031 13.738281 C 93.84375 14.199219 92.964844 14.378906 92.316406 14.3125 C 91.675781 14.246094 91.082031 13.914062 90.742188 13.367188 C 90.472656 12.996094 90.34375 12.550781 90.324219 12.113281 C 90.324219 11.613281 90.453125 11.105469 90.742188 10.6875 C 91.15625 10.09375 91.660156 9.59375 92.269531 9.195312 C 93.1875 8.554688 93.992188 8.25 94.6875 8.25 C 95.394531 8.25 96.050781 8.582031 96.664062 9.257812 L 94.6875 10.816406 C 94.300781 10.316406 93.558594 10.203125 93.058594 10.605469 L 92.992188 10.667969 C 92.769531 10.796875 92.621094 10.992188 92.53125 11.234375 C 92.464844 11.410156 92.511719 11.613281 92.621094 11.761719 C 92.707031 11.875 92.835938 11.957031 92.992188 11.957031 C 93.160156 11.984375 93.464844 11.890625 93.910156 11.699219 C 94.996094 11.234375 95.828125 10.972656 96.394531 10.882812 C 96.875 10.796875 97.375 10.84375 97.839844 11.039062 C 98.257812 11.214844 98.601562 11.523438 98.839844 11.890625 C 99.148438 12.335938 99.324219 12.867188 99.351562 13.414062 C 99.367188 13.980469 99.210938 14.535156 98.90625 15.015625 C 98.515625 15.609375 98.015625 16.109375 97.421875 16.507812 C 96.21875 17.34375 95.234375 17.695312 94.457031 17.566406 C 93.605469 17.425781 92.898438 16.992188 92.398438 16.351562 Z M 92.398438 16.351562 "/>
</g>
</g>
</g>
</g>
</svg>
